<mxfile host="app.diagrams.net" agent="Mozilla/5.0 (Windows NT 10.0; Win64; x64) AppleWebKit/537.36 (KHTML, like Gecko) Chrome/135.0.0.0 Safari/537.36" version="26.2.14">
  <diagram name="Page-1" id="9361dd3d-8414-5efd-6122-117bd74ce7a7">
    <mxGraphModel grid="1" page="0" gridSize="10" guides="1" tooltips="1" connect="1" arrows="1" fold="1" pageScale="1.5" pageWidth="826" pageHeight="1169" background="none" math="0" shadow="0">
      <root>
        <mxCell id="0" />
        <mxCell id="1" parent="0" />
        <mxCell id="69" value="" style="fillColor=#DEE8FF;strokeColor=none" vertex="1" parent="1">
          <mxGeometry y="10" width="1060" height="470" as="geometry" />
        </mxCell>
        <mxCell id="2" value="" style="fillColor=#CC4125;strokeColor=#660000" vertex="1" parent="1">
          <mxGeometry x="200" y="150" width="10" height="270" as="geometry" />
        </mxCell>
        <mxCell id="3" value="press &quot;reject order&quot; button" style="edgeStyle=none;verticalLabelPosition=top;verticalAlign=bottom;labelPosition=left;align=right" edge="1" parent="1">
          <mxGeometry width="100" height="100" as="geometry">
            <mxPoint x="110" y="149.5" as="sourcePoint" />
            <mxPoint x="200" y="149.5" as="targetPoint" />
            <mxPoint x="25" as="offset" />
          </mxGeometry>
        </mxCell>
        <mxCell id="4" value="&lt;&lt;view&gt;&gt;&#xa;:RestaurantOrderManagementPage" style="shadow=1;fillColor=#A2C4C9;strokeColor=none" vertex="1" parent="1">
          <mxGeometry x="95" y="60" width="220" height="50" as="geometry" />
        </mxCell>
        <mxCell id="6" value="" style="fillColor=#CC4125;strokeColor=#660000" vertex="1" parent="1">
          <mxGeometry x="420" y="166.59" width="10" height="233.41" as="geometry" />
        </mxCell>
        <mxCell id="7" value="&lt;&lt;controller&gt;&gt;&#xa;:RestaurantController" style="shadow=1;fillColor=#A2C4C9;strokeColor=none" vertex="1" parent="1">
          <mxGeometry x="360" y="60" width="130" height="50" as="geometry" />
        </mxCell>
        <mxCell id="8" value="" style="edgeStyle=none;endArrow=none;dashed=1" edge="1" parent="1" source="7" target="6">
          <mxGeometry x="272.3350694444445" y="165" width="100" height="100" as="geometry">
            <mxPoint x="347.2588734567901" y="110" as="sourcePoint" />
            <mxPoint x="347.5761959876544" y="165" as="targetPoint" />
          </mxGeometry>
        </mxCell>
        <mxCell id="9" value="updateOrderStatus(orderId, newStatus)" style="edgeStyle=none;verticalLabelPosition=top;verticalAlign=bottom;entryX=0.5;entryY=0;entryDx=0;entryDy=0;dashed=1;dashPattern=8 8;" edge="1" parent="1" target="6">
          <mxGeometry width="100" height="100" as="geometry">
            <mxPoint x="210" y="164.39" as="sourcePoint" />
            <mxPoint x="340" y="164.39" as="targetPoint" />
            <mxPoint as="offset" />
          </mxGeometry>
        </mxCell>
        <mxCell id="12" value="" style="edgeStyle=none;verticalLabelPosition=top;verticalAlign=bottom;labelPosition=left;align=right;endArrow=none;startArrow=classic;exitX=0.039;exitY=0.851;exitDx=0;exitDy=0;exitPerimeter=0;" edge="1" parent="1" source="69">
          <mxGeometry x="110" y="179.75887345679013" width="100" height="100" as="geometry">
            <mxPoint x="110" y="409.99887345679014" as="sourcePoint" />
            <mxPoint x="200" y="409.99887345679014" as="targetPoint" />
          </mxGeometry>
        </mxCell>
        <mxCell id="SIQ2NpH18vYJeJt7uFNV-129" value="&quot;Order status updated succesfully&quot;&lt;div&gt;message seen by user&lt;/div&gt;" style="edgeLabel;html=1;align=center;verticalAlign=middle;resizable=0;points=[];" connectable="0" vertex="1" parent="12">
          <mxGeometry relative="1" as="geometry">
            <mxPoint x="-26" y="1" as="offset" />
          </mxGeometry>
        </mxCell>
        <mxCell id="15" value="&lt;&lt;controller&gt;&gt;&#xa;:OrderService" style="shadow=1;fillColor=#A2C4C9;strokeColor=none" vertex="1" parent="1">
          <mxGeometry x="610.0039506172839" y="69.99999999999997" width="105" height="50" as="geometry" />
        </mxCell>
        <mxCell id="16" value="" style="edgeStyle=none;endArrow=none" edge="1" parent="1" source="15" target="17">
          <mxGeometry x="437.042824074074" y="270" width="100" height="100" as="geometry">
            <mxPoint x="514.542824074074" y="219.99999999999997" as="sourcePoint" />
            <mxPoint x="514.542824074074" y="239.99999999999997" as="targetPoint" />
          </mxGeometry>
        </mxCell>
        <mxCell id="17" value="" style="fillColor=#CC4125;strokeColor=#660000" vertex="1" parent="1">
          <mxGeometry x="660" y="199.39" width="10" height="160.61" as="geometry" />
        </mxCell>
        <mxCell id="19" value="updateOrderStatus(orderId, request.status)" style="edgeStyle=elbowEdgeStyle;elbow=vertical;verticalLabelPosition=top;verticalAlign=bottom;dashed=1;dashPattern=8 8;" edge="1" parent="1">
          <mxGeometry x="350" y="290" width="100" height="100" as="geometry">
            <mxPoint x="430" y="220" as="sourcePoint" />
            <mxPoint x="660" y="220" as="targetPoint" />
          </mxGeometry>
        </mxCell>
        <mxCell id="21" value="" style="fillColor=#CC4125;strokeColor=#660000" vertex="1" parent="1">
          <mxGeometry x="840" y="242.66" width="10" height="117.34" as="geometry" />
        </mxCell>
        <mxCell id="22" value="&lt;&lt;model&gt;&gt;&#xa;:Order" style="shadow=1;fillColor=#A2C4C9;strokeColor=none" vertex="1" parent="1">
          <mxGeometry x="792.5" y="140" width="105" height="50" as="geometry" />
        </mxCell>
        <mxCell id="23" value="" style="edgeStyle=none;endArrow=none;dashed=1" edge="1" parent="1" source="22" target="21">
          <mxGeometry x="614.4878472222224" y="174.99999999999997" width="100" height="100" as="geometry">
            <mxPoint x="674.6527777777778" y="110" as="sourcePoint" />
            <mxPoint x="674.6527777777778" y="260" as="targetPoint" />
          </mxGeometry>
        </mxCell>
        <mxCell id="24" value="&lt;&lt;model&gt;&gt;&#xa;:OrderRepository" style="shadow=1;fillColor=#A2C4C9;strokeColor=none" vertex="1" parent="1">
          <mxGeometry x="942.5" y="140" width="105" height="50" as="geometry" />
        </mxCell>
        <mxCell id="25" value="" style="edgeStyle=none;endArrow=none;dashed=1" edge="1" parent="1" source="24" target="26">
          <mxGeometry x="727.3350694444446" y="165" width="100" height="100" as="geometry">
            <mxPoint x="802.2588734567901" y="110" as="sourcePoint" />
            <mxPoint x="802.5761959876544" y="165" as="targetPoint" />
          </mxGeometry>
        </mxCell>
        <mxCell id="SIQ2NpH18vYJeJt7uFNV-108" style="edgeStyle=orthogonalEdgeStyle;rounded=0;orthogonalLoop=1;jettySize=auto;html=1;exitX=0;exitY=0.75;exitDx=0;exitDy=0;entryX=1;entryY=0.75;entryDx=0;entryDy=0;" edge="1" parent="1" source="26" target="21">
          <mxGeometry relative="1" as="geometry">
            <Array as="points">
              <mxPoint x="990" y="330" />
              <mxPoint x="920" y="330" />
            </Array>
          </mxGeometry>
        </mxCell>
        <mxCell id="SIQ2NpH18vYJeJt7uFNV-110" value="savedOrder" style="edgeLabel;html=1;align=center;verticalAlign=middle;resizable=0;points=[];" connectable="0" vertex="1" parent="SIQ2NpH18vYJeJt7uFNV-108">
          <mxGeometry x="0.4056" relative="1" as="geometry">
            <mxPoint x="27" as="offset" />
          </mxGeometry>
        </mxCell>
        <mxCell id="26" value="" style="fillColor=#CC4125;strokeColor=#660000" vertex="1" parent="1">
          <mxGeometry x="990" y="254.13" width="10" height="94.39" as="geometry" />
        </mxCell>
        <mxCell id="33" value="" style="edgeStyle=elbowEdgeStyle;elbow=horizontal;endArrow=none;dashed=1" edge="1" parent="1" source="4" target="2">
          <mxGeometry x="230.00000000000003" y="310" width="100" height="100" as="geometry">
            <mxPoint x="230.00000000000003" y="410" as="sourcePoint" />
            <mxPoint x="330" y="310" as="targetPoint" />
          </mxGeometry>
        </mxCell>
        <mxCell id="71" value="reject order" style="rounded=1;fontStyle=1;fillColor=#FFD966;strokeColor=none" vertex="1" parent="1">
          <mxGeometry x="20" y="20" width="150" height="30" as="geometry" />
        </mxCell>
        <mxCell id="SIQ2NpH18vYJeJt7uFNV-89" value="Restaurant" style="shape=umlActor;verticalLabelPosition=bottom;verticalAlign=top;html=1;outlineConnect=0;" vertex="1" parent="1">
          <mxGeometry x="30" y="220" width="30" height="60" as="geometry" />
        </mxCell>
        <mxCell id="SIQ2NpH18vYJeJt7uFNV-97" value="frame" style="shape=umlFrame;whiteSpace=wrap;html=1;pointerEvents=0;width=40;height=21;" vertex="1" parent="1">
          <mxGeometry x="660" y="239.39" width="180" height="90.61" as="geometry" />
        </mxCell>
        <mxCell id="SIQ2NpH18vYJeJt7uFNV-99" value="[if(status==REJECTED&lt;span style=&quot;background-color: transparent; color: light-dark(rgb(0, 0, 0), rgb(255, 255, 255));&quot;&gt;)&lt;/span&gt;&lt;div&gt;&lt;span style=&quot;background-color: transparent; color: light-dark(rgb(0, 0, 0), rgb(255, 255, 255));&quot;&gt;o.courier = null, o.courierAssignmentAccepted = false]&lt;/span&gt;&lt;/div&gt;" style="text;html=1;align=center;verticalAlign=middle;whiteSpace=wrap;rounded=0;" vertex="1" parent="1">
          <mxGeometry x="660" y="257.35" width="180" height="65.31" as="geometry" />
        </mxCell>
        <mxCell id="SIQ2NpH18vYJeJt7uFNV-105" style="edgeStyle=orthogonalEdgeStyle;rounded=0;orthogonalLoop=1;jettySize=auto;html=1;exitX=1;exitY=0.25;exitDx=0;exitDy=0;entryX=0.04;entryY=0.183;entryDx=0;entryDy=0;entryPerimeter=0;dashed=1;dashPattern=8 8;" edge="1" parent="1">
          <mxGeometry relative="1" as="geometry">
            <mxPoint x="851" y="271.9949999999999" as="sourcePoint" />
            <mxPoint x="991.3999999999999" y="271.40337" as="targetPoint" />
          </mxGeometry>
        </mxCell>
        <mxCell id="SIQ2NpH18vYJeJt7uFNV-106" value="orderRepository.save(o)" style="edgeLabel;html=1;align=center;verticalAlign=middle;resizable=0;points=[];" connectable="0" vertex="1" parent="SIQ2NpH18vYJeJt7uFNV-105">
          <mxGeometry x="-0.164" relative="1" as="geometry">
            <mxPoint x="10" as="offset" />
          </mxGeometry>
        </mxCell>
        <mxCell id="SIQ2NpH18vYJeJt7uFNV-111" value="&lt;&lt;controller&gt;&gt;&#xa;:OrderMapper" style="shadow=1;fillColor=#A2C4C9;strokeColor=none" vertex="1" parent="1">
          <mxGeometry x="490.00395061728386" y="129.99999999999997" width="105" height="50" as="geometry" />
        </mxCell>
        <mxCell id="SIQ2NpH18vYJeJt7uFNV-112" value="" style="fillColor=#CC4125;strokeColor=#660000" vertex="1" parent="1">
          <mxGeometry x="537.5" y="304.39" width="10" height="55.61" as="geometry" />
        </mxCell>
        <mxCell id="SIQ2NpH18vYJeJt7uFNV-113" value="" style="edgeStyle=none;endArrow=none;dashed=1;exitX=0.5;exitY=1;exitDx=0;exitDy=0;" edge="1" parent="1" source="SIQ2NpH18vYJeJt7uFNV-111">
          <mxGeometry x="614.4878472222224" y="174.99999999999997" width="100" height="100" as="geometry">
            <mxPoint x="542.0699999999999" y="251.39" as="sourcePoint" />
            <mxPoint x="542.0699999999999" y="304.39" as="targetPoint" />
          </mxGeometry>
        </mxCell>
        <mxCell id="SIQ2NpH18vYJeJt7uFNV-114" style="edgeStyle=orthogonalEdgeStyle;rounded=0;orthogonalLoop=1;jettySize=auto;html=1;exitX=0;exitY=0.75;exitDx=0;exitDy=0;entryX=0.415;entryY=0.153;entryDx=0;entryDy=0;entryPerimeter=0;dashed=1;dashPattern=8 8;" edge="1" parent="1" source="SIQ2NpH18vYJeJt7uFNV-99" target="SIQ2NpH18vYJeJt7uFNV-112">
          <mxGeometry relative="1" as="geometry">
            <Array as="points">
              <mxPoint x="660" y="313" />
            </Array>
          </mxGeometry>
        </mxCell>
        <mxCell id="SIQ2NpH18vYJeJt7uFNV-120" value="maptoDTO(order)" style="edgeLabel;html=1;align=center;verticalAlign=middle;resizable=0;points=[];" connectable="0" vertex="1" parent="SIQ2NpH18vYJeJt7uFNV-114">
          <mxGeometry x="0.1926" y="-1" relative="1" as="geometry">
            <mxPoint x="8" as="offset" />
          </mxGeometry>
        </mxCell>
        <mxCell id="SIQ2NpH18vYJeJt7uFNV-117" style="edgeStyle=orthogonalEdgeStyle;rounded=0;orthogonalLoop=1;jettySize=auto;html=1;exitX=0;exitY=0.75;exitDx=0;exitDy=0;dashed=1;dashPattern=8 8;" edge="1" parent="1" source="SIQ2NpH18vYJeJt7uFNV-112">
          <mxGeometry relative="1" as="geometry">
            <mxPoint x="425" y="346" as="targetPoint" />
            <Array as="points">
              <mxPoint x="428" y="346" />
            </Array>
          </mxGeometry>
        </mxCell>
        <mxCell id="SIQ2NpH18vYJeJt7uFNV-121" value="return orderDTO" style="edgeLabel;html=1;align=center;verticalAlign=middle;resizable=0;points=[];" connectable="0" vertex="1" parent="SIQ2NpH18vYJeJt7uFNV-117">
          <mxGeometry x="-0.0072" y="1" relative="1" as="geometry">
            <mxPoint as="offset" />
          </mxGeometry>
        </mxCell>
        <mxCell id="SIQ2NpH18vYJeJt7uFNV-119" style="edgeStyle=orthogonalEdgeStyle;rounded=0;orthogonalLoop=1;jettySize=auto;html=1;exitX=0.27;exitY=0.946;exitDx=0;exitDy=0;entryX=1.4;entryY=0.876;entryDx=0;entryDy=0;entryPerimeter=0;exitPerimeter=0;" edge="1" parent="1" source="6" target="2">
          <mxGeometry relative="1" as="geometry" />
        </mxCell>
        <mxCell id="SIQ2NpH18vYJeJt7uFNV-126" value="return HTTP 200, orderDTO" style="edgeLabel;html=1;align=center;verticalAlign=middle;resizable=0;points=[];" connectable="0" vertex="1" parent="SIQ2NpH18vYJeJt7uFNV-119">
          <mxGeometry x="0.1887" relative="1" as="geometry">
            <mxPoint x="16" as="offset" />
          </mxGeometry>
        </mxCell>
      </root>
    </mxGraphModel>
  </diagram>
</mxfile>
